<?xml version="1.0" encoding="UTF-8" standalone="no"?><!DOCTYPE svg PUBLIC "-//W3C//DTD SVG 1.1//EN" "http://www.w3.org/Graphics/SVG/1.1/DTD/svg11.dtd"><svg width="100%" height="100%" viewBox="0 0 24 24" version="1.1" xmlns="http://www.w3.org/2000/svg" xmlns:xlink="http://www.w3.org/1999/xlink" xml:space="preserve" xmlns:serif="http://www.serif.com/" style="fill-rule:evenodd;clip-rule:evenodd;stroke-linejoin:round;stroke-miterlimit:2;"><path d="M1.047,16.38c0.104,-0.434 3.642,-13.296 3.77,-13.772c0.128,-0.475 0.968,-0.607 1.123,-0.122c0.155,0.484 2.027,7.841 2.027,7.841c0,0 0.053,-1.125 0.773,-1.863c1.005,-1.03 3.505,-1.165 4.545,-0.028c1.113,1.217 0.722,2.933 0.722,2.933c0,0 1.298,-1.428 2.681,-2.098c1.384,-0.669 3.367,-0.804 4.352,-0.59c0.985,0.214 1.776,0.42 2.118,0.32c0.343,-0.1 0.457,-0.428 0.457,-0.428l0.385,0.025l-0.716,3.846l-0.318,-0.043c0,0 -0.101,-0.961 -0.46,-1.74c-0.692,-1.507 -3.839,-2.377 -6.256,0.443c-2.255,2.63 -2.224,5.502 -2.033,6.984c0.351,2.725 3.191,3.676 5.797,2.167c1.358,-0.787 1.959,-1.604 1.959,-1.604l0.309,0.282c0,0 -2.033,3.096 -5.747,2.875c-3.655,-0.218 -4.572,-3.339 -4.618,-5.086c-0.044,-1.674 0.643,-3.048 0.643,-3.048c0,0 -0.8,0.371 -2.174,0.24c-1.204,-0.114 -1.717,-0.783 -1.717,-0.783c0,0 0.607,2.371 0.739,2.84c0.282,0.999 -1.019,1.526 -1.368,0.449c-0.382,-1.178 -0.619,-2.225 -0.841,-3.015c-0.22,-0.779 -0.722,-0.869 -1.257,-0.861c-0.579,0.009 -1.093,-0.003 -1.712,-0.004c-0.578,0 -1.036,0.353 -1.244,0.902c-0.199,0.524 -1.178,2.811 -1.301,3.111c-0.263,0.636 -0.79,0.466 -0.638,-0.173Zm-0.59,2.042l-0.457,1.645c0,0 1.143,-0.857 2.51,-0.713c2.027,0.215 2.691,2.085 5.547,2.26c1.42,0.087 2.565,-0.644 2.565,-0.644l-0.312,-1.306c0,0 -1.157,0.64 -2.115,0.571c-2.54,-0.183 -3.048,-2.128 -5.593,-2.233c-1.438,-0.059 -2.145,0.42 -2.145,0.42Zm9.343,-7.528c0.049,1.311 0.286,2.125 1.175,2.14c1.002,0.017 1.243,-0.858 1.249,-2.207c0.009,-1.793 -0.466,-2.293 -1.228,-2.296c-0.757,-0.003 -1.258,0.7 -1.196,2.363Zm-4.464,-6.07c0,0 -1.306,5.696 -1.408,6.069c-0.103,0.373 0.165,0.852 0.435,0.852c0.271,0 1.362,-0.004 1.705,0c0.344,0.004 0.635,-0.276 0.527,-0.824c-0.092,-0.466 -1.259,-6.097 -1.259,-6.097Z"/></svg>