<?xml version="1.0" encoding="UTF-8" standalone="no"?><!DOCTYPE svg PUBLIC "-//W3C//DTD SVG 1.1//EN" "http://www.w3.org/Graphics/SVG/1.1/DTD/svg11.dtd"><svg width="100%" height="100%" viewBox="0 0 24 24" version="1.1" xmlns="http://www.w3.org/2000/svg" xmlns:xlink="http://www.w3.org/1999/xlink" xml:space="preserve" xmlns:serif="http://www.serif.com/" style="fill-rule:evenodd;clip-rule:evenodd;stroke-linejoin:round;stroke-miterlimit:2;"><path d="M24,0l0,24l-24,0l0,-24l24,0Zm-12.575,22.193c0,-0.045 0.031,-12.433 0.014,-13.389c-0.028,-1.616 -2.024,-2.013 -4.273,0.129c-1.105,1.053 -2.583,2.323 -4.361,5.853c-1.779,3.53 -1.915,7.325 -1.915,7.325l1.806,-0.027c0.023,-1.205 0.17,-2.356 0.52,-3.421l6.294,0l0.055,3.53l1.86,0Zm1.396,-14.815l0.055,14.815l4.022,0c1.834,0 4.31,-0.848 4.296,-4.132c-0.011,-2.736 -2.469,-3.739 -2.853,-3.739c-0.383,0 1.567,-0.196 1.567,-3.261c0,-3.064 -3.058,-3.656 -5.172,-3.656c-1.395,0 -1.915,-0.027 -1.915,-0.027Zm1.915,8.138c0,0 0.69,-0.064 1.729,-0.064c1.04,0 2.923,0.694 2.923,2.445c0,1.751 -1.204,2.572 -2.38,2.572c-1.177,0 -2.272,0.028 -2.272,0.028l0,-4.981Zm-10.808,1.286l5.664,0.028l0,-7.553c-2.659,2.331 -4.828,4.774 -5.664,7.525Zm10.817,-7.659l1.068,0c0.848,0 2.33,0.387 2.371,2.23c0.047,2.085 -1.44,2.542 -2.165,2.542c-0.725,0 -1.255,-0.013 -1.255,-0.013l-0.019,-4.759Zm0.758,-8.102c0,0 -1.033,1.81 -0.247,3.887c0.75,1.982 3.041,2.976 5.148,2.439c2.107,-0.537 2.761,-2.742 2.761,-2.742c0,0 -1.09,-0.181 -2.601,0.215c-1.149,0.301 -2.38,1.756 -2.38,1.756c0,0 0.411,-1.834 -0.383,-3.284c-0.793,-1.45 -2.298,-2.271 -2.298,-2.271Z" style="fill:#0f9a3b;"/></svg>