<?xml version="1.0" encoding="UTF-8" standalone="no"?><!DOCTYPE svg PUBLIC "-//W3C//DTD SVG 1.1//EN" "http://www.w3.org/Graphics/SVG/1.1/DTD/svg11.dtd"><svg width="100%" height="100%" viewBox="0 0 24 24" version="1.1" xmlns="http://www.w3.org/2000/svg" xmlns:xlink="http://www.w3.org/1999/xlink" xml:space="preserve" xmlns:serif="http://www.serif.com/" style="fill-rule:evenodd;clip-rule:evenodd;stroke-linejoin:round;stroke-miterlimit:2;"><path d="M19.641,0.286c-0.411,0.104 -1.279,0.292 -1.928,0.416c-1.65,0.312 -1.912,0.406 -2.647,0.931c-1.043,0.748 -1.773,2.192 -1.768,3.504c0.005,0.5 0.082,0.856 0.169,0.762c0.021,-0.025 0.093,-0.168 0.155,-0.316c0.313,-0.728 1.223,-1.837 1.999,-2.436c0.396,-0.307 1.193,-0.608 1.193,-0.45c0,0.055 -0.272,0.381 -0.596,0.708c-0.303,0.312 -0.407,0.44 -0.977,1.237c-0.591,0.837 -1.363,2.331 -1.881,3.663c-0.504,1.292 -0.874,2.321 -1.121,3.093c-0.417,1.322 -0.792,2.366 -0.859,2.386c-0.082,0.029 -0.308,-0.678 -0.781,-2.435c-0.735,-2.752 -1.049,-3.698 -1.799,-5.42c-0.514,-1.173 -1.193,-2.114 -2.571,-3.554c-0.755,-0.797 -1.829,-1.559 -2.477,-1.767c-0.422,-0.139 -0.457,-0.069 -0.139,0.273c1.502,1.628 2.37,2.836 3.29,4.553c0.776,1.46 1.311,2.91 2.282,6.237c0.248,0.851 0.792,3.019 0.967,3.86c0.195,0.936 0.411,1.852 0.468,1.995c0.021,0.044 0.097,0.104 0.175,0.124c0.174,0.044 1.017,0.044 1.197,0c0.267,-0.075 0.319,-0.278 0.689,-2.614c0.247,-1.579 0.458,-2.524 0.879,-3.935c0.715,-2.405 1.475,-4.167 1.938,-4.455c0.067,-0.039 0.396,-0.118 0.741,-0.173c1.336,-0.213 2.41,-0.781 3.171,-1.687c0.508,-0.604 0.643,-1.05 0.771,-2.535c0.067,-0.786 0.108,-1.009 0.262,-1.479c0.098,-0.307 0.165,-0.585 0.155,-0.619c-0.037,-0.089 -0.119,-0.079 -0.957,0.133Z" style="fill:#017f00;fill-rule:nonzero;"/><text x="2.464px" y="22.075px" style="font-family:'ArialMT', 'Arial', sans-serif;font-size:7px;fill:#017f00;">vegan</text></svg>