<?xml version="1.0" encoding="UTF-8" standalone="no"?><!DOCTYPE svg PUBLIC "-//W3C//DTD SVG 1.1//EN" "http://www.w3.org/Graphics/SVG/1.1/DTD/svg11.dtd"><svg width="100%" height="100%" viewBox="0 0 24 24" version="1.1" xmlns="http://www.w3.org/2000/svg" xmlns:xlink="http://www.w3.org/1999/xlink" xml:space="preserve" xmlns:serif="http://www.serif.com/" style="fill-rule:evenodd;clip-rule:evenodd;stroke-linejoin:round;stroke-miterlimit:2;"><path d="M21.878,0.464c-0.53,0.139 -1.65,0.391 -2.486,0.557c-2.128,0.418 -2.466,0.544 -3.414,1.246c-1.346,1.002 -2.287,2.937 -2.281,4.694c0.007,0.67 0.106,1.147 0.219,1.021c0.027,-0.033 0.119,-0.225 0.199,-0.424c0.404,-0.975 1.578,-2.46 2.579,-3.262c0.51,-0.411 1.538,-0.815 1.538,-0.603c0,0.073 -0.351,0.51 -0.769,0.948c-0.391,0.418 -0.524,0.59 -1.26,1.657c-0.762,1.121 -1.757,3.123 -2.426,4.906c-0.65,1.731 -1.127,3.11 -1.446,4.144c-0.537,1.77 -1.021,3.169 -1.107,3.196c-0.106,0.039 -0.397,-0.909 -1.007,-3.262c-0.948,-3.686 -1.353,-4.953 -2.321,-7.26c-0.663,-1.571 -1.538,-2.831 -3.315,-4.76c-0.974,-1.068 -2.36,-2.089 -3.195,-2.367c-0.544,-0.186 -0.59,-0.093 -0.179,0.365c1.936,2.181 3.056,3.799 4.243,6.099c1.001,1.956 1.69,3.898 2.943,8.354c0.319,1.14 1.021,4.044 1.247,5.171c0.252,1.253 0.53,2.48 0.603,2.672c0.027,0.059 0.126,0.139 0.226,0.166c0.225,0.059 1.312,0.059 1.544,0c0.345,-0.1 0.411,-0.372 0.889,-3.501c0.318,-2.115 0.59,-3.381 1.133,-5.271c0.922,-3.222 1.903,-5.582 2.5,-5.967c0.086,-0.053 0.51,-0.159 0.955,-0.232c1.723,-0.285 3.109,-1.047 4.09,-2.26c0.656,-0.809 0.829,-1.406 0.995,-3.395c0.086,-1.054 0.139,-1.352 0.338,-1.982c0.126,-0.411 0.212,-0.783 0.199,-0.829c-0.047,-0.119 -0.153,-0.106 -1.234,0.179Z" style="fill:#017f00;fill-rule:nonzero;"/></svg>